# xmcd CD database file
#
# Track frame offsets:
#	150
#	12558
#	24987
#	37409
#	50027
#	60357
#	73624
#	86588
#	97104
#	109562
#	121985
#	135798
#	146613
#	160059
#	173228
#	186448
#	199560
#	211241
#
# Disc length: 2969 seconds
#
# Revision: 0
# Processed by: cddbd v1.5.2PL0 Copyright (c) Steve Scherf et al.
# Submitted via: CDex 1.51
#
DISCID=fb0b9712
DTITLE=Chris Connor - Her Complete Bethlehem Recordings [CD1)
DYEAR=1953
DGENRE=Jazz
TTITLE0=Blue Silhouette
TTITLE1=Miser's Serenade
TTITLE2=Ask Me
TTITLE3=Chiquita From Chi-Wah-Wah
TTITLE4=Everything I Love
TTITLE5=Indian Summer
TTITLE6=What Is There To Say ?
TTITLE7=I Hear Music
TTITLE8=Come Back To Sorrento
TTITLE9=Why Shouldn't I ?
TTITLE10=Try A Little Tenderness
TTITLE11=Lullaby Of Birdland
TTITLE12=All About Ronnie
TTITLE13=Spring Is Here
TTITLE14=Out Of This World
TTITLE15=Lush Life
TTITLE16=A Cottage For Sale
TTITLE17=How Long Has This Been Going On ?
EXTD=YEAR: 1953
EXTT0=
EXTT1=
EXTT2=
EXTT3=
EXTT4=
EXTT5=
EXTT6=
EXTT7=
EXTT8=
EXTT9=
EXTT10=
EXTT11=
EXTT12=
EXTT13=
EXTT14=
EXTT15=
EXTT16=
EXTT17=
PLAYORDER=
